<?xml version="1.0" encoding="UTF-8"?>
<svg version="1.1" xmlns="http://www.w3.org/2000/svg" width="512" height="512">
<path d="M0 0 C1.10634855 0.8667888 2.21448518 1.73129923 3.32421875 2.59375 C10.06323754 7.83869618 16.72916557 13.17495825 23.39160156 18.51660156 C29.31848755 23.26486289 35.28775675 27.95792679 41.26611328 32.64111328 C44.76446446 35.3828512 48.2579795 38.13074956 51.75244141 40.87744141 C54.65502423 43.15856239 57.55868273 45.43828263 60.46484375 47.71484375 C67.13768061 52.94490507 73.77754236 58.213503 80.39208984 63.51708984 C86.3189464 68.26502233 92.28793592 72.95806715 98.26611328 77.64111328 C101.76320065 80.38186072 105.25606737 83.12799267 108.74804688 85.87524414 C111.67135453 88.1742868 114.59877174 90.46767629 117.53515625 92.75 C120.46154392 95.02697789 123.37403639 97.32060502 126.27539062 99.62939453 C127.42482944 100.54289248 128.5771834 101.45273433 129.73242188 102.35888672 C147.50807883 116.36654829 158.22914564 134.28936779 161 157 C161.09210637 159.61001646 161.14370379 162.19294699 161.14044189 164.80212402 C161.14489858 165.93453136 161.14489858 165.93453136 161.1494453 167.08981562 C161.15807276 169.60350832 161.15963549 172.11715307 161.16113281 174.63085938 C161.16576532 176.44004415 161.17079056 178.24922796 161.17617798 180.05841064 C161.18926501 184.96380517 161.19574008 189.86918602 161.20018864 194.77459526 C161.20312623 197.8450374 161.20723239 200.91547586 161.21169281 203.98591614 C161.22535997 213.60905104 161.23502962 223.23217747 161.2388947 232.85532141 C161.24336922 243.93263427 161.26089227 255.00982335 161.2898953 266.0870986 C161.31157846 274.66914668 161.32160256 283.25116011 161.32293582 291.83323526 C161.32397939 296.94939346 161.32979095 302.06543518 161.34775543 307.18156433 C161.36435051 312.00136088 161.36633667 316.82095485 161.35761642 321.64076996 C161.35685205 323.39861853 161.36110853 325.15647852 161.37107468 326.91429901 C161.50175487 351.42360403 155.56764096 372.10866717 138 390 C137.32324219 390.70125 136.64648438 391.4025 135.94921875 392.125 C121.05542777 406.48586814 101.29136807 411.15620946 81.17370605 411.14044189 C79.98591128 411.14341302 78.7981165 411.14638414 77.57432795 411.1494453 C74.28983463 411.15660178 71.00537327 411.15930276 67.72087336 411.16004276 C64.17329484 411.16189995 60.62572752 411.16945069 57.07815552 411.17617798 C49.32574556 411.18973586 41.57334079 411.19578228 33.82092094 411.20018864 C28.97487657 411.20295583 24.12883417 411.20719409 19.28279114 411.21169281 C5.85054398 411.22388302 -7.58170159 411.23418226 -21.01395416 411.2375679 C-22.30248897 411.23789725 -22.30248897 411.23789725 -23.61705479 411.23823325 C-24.47807101 411.23845153 -25.33908724 411.23866981 -26.22619486 411.2388947 C-27.97078355 411.23933816 -29.71537225 411.23978472 -31.45996094 411.24023438 C-32.75801046 411.24056652 -32.75801046 411.24056652 -34.0822832 411.24090537 C-48.09115813 411.24484986 -62.09998094 411.26229432 -76.10883576 411.2855939 C-90.51113991 411.30935332 -104.91341796 411.32177187 -119.31574202 411.32293582 C-127.39412241 411.3238501 -135.4724349 411.32953965 -143.55079651 411.34775543 C-150.43243952 411.36321863 -157.31399365 411.3682405 -164.19565076 411.36001733 C-167.70133598 411.35613246 -171.20684254 411.35693322 -174.71250534 411.37107468 C-202.55865946 411.46436337 -225.27933951 408.34578012 -246 388 C-246.70125 387.32324219 -247.4025 386.64648438 -248.125 385.94921875 C-261.12943859 372.46219357 -267.16354468 353.67767238 -267.14044189 335.19787598 C-267.14341302 334.44293775 -267.14638414 333.68799953 -267.1494453 332.91018438 C-267.15807276 330.39649168 -267.15963549 327.88284693 -267.16113281 325.36914062 C-267.16576532 323.55995585 -267.17079056 321.75077204 -267.17617798 319.94158936 C-267.18926501 315.03619483 -267.19574008 310.13081398 -267.20018864 305.22540474 C-267.20312623 302.1549626 -267.20723239 299.08452414 -267.21169281 296.01408386 C-267.22535997 286.39094896 -267.23502962 276.76782253 -267.2388947 267.14467859 C-267.24336922 256.06736573 -267.26089227 244.99017665 -267.2898953 233.9129014 C-267.31157846 225.33085332 -267.32160256 216.74883989 -267.32293582 208.16676474 C-267.32397939 203.05060654 -267.32979095 197.93456482 -267.34775543 192.81843567 C-267.36435051 187.99863912 -267.36633667 183.17904515 -267.35761642 178.35923004 C-267.35685205 176.60138147 -267.36110853 174.84352148 -267.37107468 173.08570099 C-267.48401346 151.90382904 -263.78899358 132.78068844 -250 116 C-249.48050781 115.31808594 -248.96101563 114.63617188 -248.42578125 113.93359375 C-243.48203979 107.76948286 -237.14820617 103.22929768 -230.91015625 98.47070312 C-227.73619678 96.02694905 -224.62041286 93.51151221 -221.5 91 C-214.94545885 85.74231498 -208.34859702 80.54056528 -201.73388672 75.35888672 C-198.82033183 73.07546705 -195.91031584 70.78754555 -193 68.5 C-189.51343843 65.75951792 -186.02621854 63.01990378 -182.53515625 60.28515625 C-176.4986907 55.55387244 -170.48376068 50.79781792 -164.5 46 C-157.94437 40.74365357 -151.34861504 35.5405794 -144.73388672 30.35888672 C-141.82033183 28.07546705 -138.91031584 25.78754555 -136 23.5 C-132.51343843 20.75951792 -129.02621854 18.01990378 -125.53515625 15.28515625 C-124.37759785 14.37761222 -123.22004578 13.47006013 -122.0625 12.5625 C-121.48975342 12.11422852 -120.91700684 11.66595703 -120.3269043 11.20410156 C-117.25252101 8.79197898 -114.19995047 6.35678941 -111.171875 3.88671875 C-97.78329019 -7.02005485 -83.57974921 -17.4653966 -66 -20 C-65.27167969 -20.12117188 -64.54335937 -20.24234375 -63.79296875 -20.3671875 C-39.4879257 -23.6723509 -18.60093459 -15.01726829 0 0 Z M-98.015625 22.73046875 C-101.49724531 25.60372348 -105.03502188 28.3888575 -108.625 31.125 C-118.65679727 38.78474668 -128.54470643 46.62159776 -138.3918457 54.5168457 C-144.31871697 59.26494262 -150.28784633 63.95799697 -156.26611328 68.64111328 C-159.17966817 70.92453295 -162.08968416 73.21245445 -165 75.5 C-168.48656157 78.24048208 -171.97378146 80.98009622 -175.46484375 83.71484375 C-181.5013093 88.44612756 -187.51623932 93.20218208 -193.5 98 C-198.33604624 101.87757308 -203.18736342 105.73418447 -208.0625 109.5625 C-208.63178223 110.01165771 -209.20106445 110.46081543 -209.78759766 110.92358398 C-212.7355037 113.24492433 -215.7021314 115.53406645 -218.70703125 117.78125 C-231.72097868 127.58813982 -241.80695405 139.17157542 -244.28688526 155.93979359 C-245.20673776 164.14403854 -245.1482451 172.35121143 -245.14526367 180.59448242 C-245.14826072 182.25632807 -245.15166449 183.91817303 -245.15544128 185.58001709 C-245.16423077 190.06996206 -245.16661728 194.55988794 -245.16725707 199.04984069 C-245.16797053 201.8625017 -245.17011046 204.67515794 -245.17275429 207.48781776 C-245.18199155 217.3217156 -245.18609127 227.15559993 -245.18530273 236.98950195 C-245.18470263 246.12120341 -245.19524538 255.25284566 -245.2110464 264.38453215 C-245.22417142 272.2532711 -245.22948455 280.12199081 -245.22884732 287.9907406 C-245.22859376 292.67758127 -245.23136602 297.3643693 -245.24202538 302.05119896 C-245.2517901 306.46472264 -245.25172889 310.87814423 -245.24450874 315.29167175 C-245.24347317 316.89955102 -245.24576368 318.50743694 -245.2518692 320.11530495 C-245.31873657 338.96500483 -244.14708269 356.25587473 -231 371 C-230.21689453 371.92232422 -230.21689453 371.92232422 -229.41796875 372.86328125 C-219.51262587 383.73264777 -206.23221844 388.01450269 -192 389 C-188.11179009 389.13050657 -184.22786209 389.13948867 -180.33770752 389.13371277 C-179.20381364 389.13597833 -178.06991975 389.13824388 -176.90166545 389.14057809 C-173.12356071 389.14687967 -169.3454922 389.1460912 -165.56738281 389.14526367 C-162.84974025 389.14771585 -160.13210018 389.15163262 -157.41445923 389.15544128 C-150.81105603 389.16372124 -144.20766176 389.16649492 -137.6042538 389.16705366 C-132.23275758 389.16753007 -126.86126428 389.16959102 -121.48976898 389.17275429 C-106.23593536 389.18155347 -90.98210876 389.18617479 -75.72827259 389.18542381 C-74.49669367 389.18536388 -74.49669367 389.18536388 -73.24023438 389.18530273 C-72.41817083 389.18526185 -71.59610728 389.18522097 -70.74913272 389.18517885 C-57.4317032 389.18477255 -44.11430197 389.19434006 -30.79688063 389.2084411 C-17.09848411 389.22283025 -3.40010137 389.2297099 10.29830289 389.22884732 C17.97920252 389.22851624 25.66007248 389.23122438 33.34096527 389.24202538 C39.88109489 389.25116384 46.42118139 389.25327828 52.96131465 389.24651595 C56.2927058 389.24326758 59.6239474 389.24423553 62.95534134 389.2518692 C94.21039866 389.64953718 94.21039866 389.64953718 121 375 C121.61488281 374.47792969 122.22976563 373.95585937 122.86328125 373.41796875 C134.06889337 363.2062025 138.1465252 349.63251617 139 335 C139.14145413 329.42501262 139.14728337 323.85262077 139.14526367 318.27612305 C139.14826146 316.61250738 139.1516654 314.9488924 139.15544128 313.28527832 C139.16422165 308.7954597 139.16661685 304.30566018 139.16725707 299.81583381 C139.16797088 297.00334271 139.17011141 294.19085638 139.17275429 291.37836647 C139.18198742 281.54561686 139.18609166 271.71288075 139.18530273 261.88012695 C139.18470224 252.74781673 139.19525385 243.61556562 139.2110464 234.48327035 C139.22416524 226.61367763 139.22948483 218.74410413 139.22884732 210.87450057 C139.22859365 206.18714775 139.23137243 201.49984755 139.24202538 196.81250572 C139.25178005 192.40061343 139.2517356 187.9888233 139.24450874 183.57692719 C139.24347205 181.96862703 139.24577054 180.36032025 139.2518692 178.75203133 C139.32062161 159.34656597 137.39168544 142.05753323 124 127 C119.92399734 123.02886876 115.48183757 119.49773718 111 116 C110.46181641 115.5786377 109.92363281 115.15727539 109.36914062 114.72314453 C106.6959233 112.63845831 104.00759151 110.57461126 101.30859375 108.5234375 C92.28886956 101.66427058 83.44833547 94.57104249 74.6081543 87.4831543 C68.68128303 82.73505738 62.71215367 78.04200303 56.73388672 73.35888672 C53.23553554 70.6171488 49.7420205 67.86925044 46.24755859 65.12255859 C43.34497577 62.84143761 40.44131727 60.56171737 37.53515625 58.28515625 C30.86231939 53.05509493 24.22245764 47.786497 17.60791016 42.48291016 C12.25512207 38.19485692 6.86992766 33.94953249 1.46875 29.72265625 C-0.87419065 27.88810199 -3.20628536 26.04087097 -5.53125 24.18359375 C-38.41205852 -2.03206331 -64.59613349 -4.89309533 -98.015625 22.73046875 Z " fill="#000000" transform="translate(309,59)"/>
<path d="M0 0 C1.4299379 -0.01073296 1.4299379 -0.01073296 2.88876343 -0.02168274 C3.9381308 -0.02437164 4.98749817 -0.02706055 6.06866455 -0.02983093 C7.17122589 -0.03640213 8.27378723 -0.04297333 9.40975952 -0.04974365 C13.07112693 -0.06951026 16.73245326 -0.0811468 20.39385986 -0.09111023 C21.64224892 -0.09518576 22.89063797 -0.09926128 24.17685699 -0.10346031 C30.10248089 -0.12218123 36.02809168 -0.13674354 41.95373797 -0.14507228 C48.78978539 -0.15483954 55.62550856 -0.18114438 62.46144176 -0.22157317 C68.38490442 -0.25540069 74.30828786 -0.26721974 80.23184967 -0.27127647 C82.75005542 -0.27615312 85.26825745 -0.28779755 87.78639984 -0.30631447 C91.31043906 -0.33061706 94.83362998 -0.32975659 98.35772705 -0.32279968 C99.3989975 -0.33560974 100.44026794 -0.3484198 101.51309204 -0.36161804 C107.4665362 -0.31876001 110.95123972 0.14617465 115.47198486 4.14717102 C117.32925102 7.86170334 117.05699576 12.10296527 116.47198486 16.14717102 C114.28175569 18.9714139 112.6418128 20.56225705 109.47198486 22.14717102 C107.96520613 22.24780288 106.45408516 22.28657652 104.94396973 22.29434204 C103.51403183 22.305075 103.51403183 22.305075 102.0552063 22.31602478 C100.48115524 22.32005814 100.48115524 22.32005814 98.87530518 22.32417297 C97.77274384 22.33074417 96.6701825 22.33731537 95.53421021 22.34408569 C91.87284279 22.3638523 88.21151646 22.37548884 84.55010986 22.38545227 C83.30172081 22.3895278 82.05333176 22.39360332 80.76711273 22.39780235 C74.84148884 22.41652327 68.91587805 22.43108558 62.99023175 22.43941432 C56.15418433 22.44918158 49.31846116 22.47548642 42.48252797 22.51591522 C36.55906531 22.54974273 30.63568186 22.56156178 24.71212006 22.56561852 C22.1939143 22.57049516 19.67571228 22.58213959 17.15756989 22.60065651 C13.63353066 22.62495911 10.11033975 22.62409863 6.58624268 22.61714172 C5.54497223 22.62995178 4.50370178 22.64276184 3.43087769 22.65596008 C-2.52256647 22.61310205 -6.00726999 22.14816739 -10.52801514 18.14717102 C-12.38528129 14.4326387 -12.11302603 10.19137677 -11.52801514 6.14717102 C-8.03480617 1.64276998 -5.56710945 0.02862795 0 0 Z " fill="#000000" transform="translate(203.52801513671875,372.8528289794922)"/>
</svg>
